<svg version="1.1" xmlns="http://www.w3.org/2000/svg" xmlns:xlink="http://www.w3.org/1999/xlink" width="512px" height="512px" viewBox="0,0,256,256"><g fill="#5b8eff" fill-rule="nonzero" stroke="none" stroke-width="1" stroke-linecap="butt" stroke-linejoin="miter" stroke-miterlimit="10" stroke-dasharray="" stroke-dashoffset="0" font-family="none" font-weight="none" font-size="none" text-anchor="none" style="mix-blend-mode: normal"><g transform="translate(-0.08199,-0.01229) scale(0.5,0.5)"><g transform="translate(0,512) scale(0.1,-0.1)"><path d="M998,4954c-150,-27 -325,-105 -446,-197c-74,-57 -177,-166 -225,-240c-57,-86 -123,-231 -149,-327l-23,-85l-2,-1504c-3,-1310 -1,-1516 12,-1593c74,-432 410,-767 844,-843c125,-22 2977,-22 3102,0c434,76 768,410 844,844c22,125 22,2977 0,3102c-75,433 -411,769 -841,844c-125,22 -2996,21 -3116,-1zM3350,2618l568,-1278h-357h-357l-324,773c-178,424 -326,775 -330,780c-4,5 -392,-864 -438,-984c-2,-5 97,-9 220,-9h223l101,-278l100,-277l-388,-3c-213,-1 -562,-1 -776,0l-387,3l537,1230c296,677 547,1251 558,1278l21,47l230,-2l231,-3z"></path><path d="M2391,3758c-5,-13 -230,-529 -501,-1148c-270,-619 -494,-1131 -497,-1137c-4,-10 118,-13 591,-13c328,0 596,3 596,6c0,5 -87,249 -105,297c-7,16 -29,17 -277,17c-253,0 -270,1 -264,18c30,84 612,1409 617,1404c3,-4 170,-397 370,-874l364,-868h222c192,0 222,2 217,15c-3,8 -235,529 -514,1157l-508,1143l-151,3c-149,2 -151,2 -160,-20z"></path></g></g></g></svg>